<svg width="56" height="56" viewBox="0 0 56 56" fill="none" xmlns="http://www.w3.org/2000/svg">
<path d="M1 10C1 5.02944 5.02944 1 10 1H55V46C55 50.9706 50.9706 55 46 55H1V10Z" stroke="#4F4C9F" stroke-width="2"/>
<g clip-path="url(#clip0_46_1992)">
<path d="M28.0001 22.0146C28.3764 22.0146 28.7527 22.1584 29.0397 22.4452L38.0692 31.4748C38.6436 32.0492 38.6436 32.9804 38.0692 33.5546C37.495 34.1288 36.5639 34.1288 35.9895 33.5546L28.0001 25.5647L20.0106 33.5543C19.4362 34.1285 18.5052 34.1285 17.9311 33.5543C17.3564 32.9802 17.3564 32.0489 17.9311 31.4745L26.9604 22.4449C27.2475 22.158 27.6238 22.0146 28.0001 22.0146Z" fill="#4F4C9F"/>
</g>
<defs>
<clipPath id="clip0_46_1992">
<rect width="21" height="21" fill="white" transform="translate(38.5 38.5) rotate(180)"/>
</clipPath>
</defs>
</svg>
